<svg width="137" height="36" viewBox="0 0 137 36" fill="none" xmlns="http://www.w3.org/2000/svg">
<circle cx="17.1053" cy="18" r="13.6842" stroke="#BE41C7" stroke-width="6.84211"/>
<path d="M42.9158 14.344C44.0152 14.344 44.8708 14.7123 45.4828 15.449C46.1062 16.1857 46.4178 17.183 46.4178 18.441V24H42.6608V18.917C42.6608 18.4637 42.5362 18.1067 42.2868 17.846C42.0488 17.574 41.7258 17.438 41.3178 17.438C40.8985 17.438 40.5698 17.574 40.3318 17.846C40.0938 18.1067 39.9748 18.4637 39.9748 18.917V24H36.2008V14.412H39.9748V15.874C40.2695 15.4207 40.6605 15.0523 41.1478 14.769C41.6465 14.4857 42.2358 14.344 42.9158 14.344ZM57.3363 19.121C57.3363 19.3817 57.3193 19.631 57.2853 19.869H51.2163C51.273 20.6963 51.6187 21.11 52.2533 21.11C52.6613 21.11 52.956 20.923 53.1373 20.549H57.1323C56.9963 21.229 56.7073 21.841 56.2653 22.385C55.8347 22.9177 55.285 23.3427 54.6163 23.66C53.959 23.966 53.2337 24.119 52.4403 24.119C51.4883 24.119 50.6383 23.9207 49.8903 23.524C49.1537 23.1273 48.5757 22.5607 48.1563 21.824C47.7483 21.076 47.5443 20.2033 47.5443 19.206C47.5443 18.2087 47.7483 17.3417 48.1563 16.605C48.5757 15.857 49.1537 15.2847 49.8903 14.888C50.6383 14.4913 51.4883 14.293 52.4403 14.293C53.3923 14.293 54.2367 14.4913 54.9733 14.888C55.7213 15.2733 56.2993 15.8287 56.7073 16.554C57.1267 17.2793 57.3363 18.135 57.3363 19.121ZM53.5113 18.22C53.5113 17.9027 53.4093 17.6647 53.2053 17.506C53.0013 17.336 52.7463 17.251 52.4403 17.251C51.7717 17.251 51.3807 17.574 51.2673 18.22H53.5113ZM58.1899 17.965C58.1899 16.775 58.4279 15.7153 58.9039 14.786C59.3913 13.8567 60.0826 13.137 60.9779 12.627C61.8733 12.1057 62.9273 11.845 64.1399 11.845C65.1826 11.845 66.1119 12.0433 66.9279 12.44C67.7553 12.8253 68.4239 13.375 68.9339 14.089C69.4553 14.803 69.8009 15.636 69.9709 16.588H65.9929C65.8116 16.1913 65.5509 15.8853 65.2109 15.67C64.8823 15.4433 64.5026 15.33 64.0719 15.33C63.4373 15.33 62.9329 15.568 62.5589 16.044C62.1963 16.52 62.0149 17.1603 62.0149 17.965C62.0149 18.7697 62.1963 19.41 62.5589 19.886C62.9329 20.362 63.4373 20.6 64.0719 20.6C64.5026 20.6 64.8823 20.4923 65.2109 20.277C65.5509 20.0503 65.8116 19.7387 65.9929 19.342H69.9709C69.8009 20.294 69.4553 21.127 68.9339 21.841C68.4239 22.555 67.7553 23.1103 66.9279 23.507C66.1119 23.8923 65.1826 24.085 64.1399 24.085C62.9273 24.085 61.8733 23.83 60.9779 23.32C60.0826 22.7987 59.3913 22.0733 58.9039 21.144C58.4279 20.2147 58.1899 19.155 58.1899 17.965ZM75.8857 24.119C74.9224 24.119 74.0554 23.9207 73.2847 23.524C72.5141 23.1273 71.9077 22.5607 71.4657 21.824C71.0351 21.076 70.8197 20.2033 70.8197 19.206C70.8197 18.2087 71.0351 17.3417 71.4657 16.605C71.9077 15.857 72.5141 15.2847 73.2847 14.888C74.0554 14.4913 74.9224 14.293 75.8857 14.293C76.8491 14.293 77.7161 14.4913 78.4867 14.888C79.2574 15.2847 79.8581 15.857 80.2887 16.605C80.7307 17.3417 80.9517 18.2087 80.9517 19.206C80.9517 20.2033 80.7307 21.076 80.2887 21.824C79.8581 22.5607 79.2574 23.1273 78.4867 23.524C77.7161 23.9207 76.8491 24.119 75.8857 24.119ZM75.8857 20.855C76.2371 20.855 76.5317 20.719 76.7697 20.447C77.0077 20.1637 77.1267 19.75 77.1267 19.206C77.1267 18.662 77.0077 18.254 76.7697 17.982C76.5317 17.6987 76.2371 17.557 75.8857 17.557C75.5344 17.557 75.2397 17.6987 75.0017 17.982C74.7637 18.254 74.6447 18.662 74.6447 19.206C74.6447 19.75 74.7581 20.1637 74.9847 20.447C75.2227 20.719 75.5231 20.855 75.8857 20.855ZM86.4044 24.119C85.4977 24.119 84.693 23.9717 83.9904 23.677C83.299 23.3823 82.7494 22.9743 82.3414 22.453C81.9334 21.9317 81.701 21.3423 81.6444 20.685H85.2654C85.3107 20.9683 85.4297 21.178 85.6224 21.314C85.8264 21.45 86.0814 21.518 86.3874 21.518C86.58 21.518 86.733 21.4783 86.8464 21.399C86.9597 21.3083 87.0164 21.2007 87.0164 21.076C87.0164 20.8607 86.8974 20.7077 86.6594 20.617C86.4214 20.5263 86.019 20.4243 85.4524 20.311C84.761 20.175 84.1887 20.0277 83.7354 19.869C83.2934 19.7103 82.9024 19.4383 82.5624 19.053C82.2337 18.6677 82.0694 18.135 82.0694 17.455C82.0694 16.8657 82.2224 16.333 82.5284 15.857C82.8457 15.3697 83.3104 14.99 83.9224 14.718C84.5344 14.4347 85.2767 14.293 86.1494 14.293C87.4414 14.293 88.45 14.6103 89.1754 15.245C89.912 15.8797 90.354 16.707 90.5014 17.727H87.1524C87.0957 17.4663 86.9767 17.268 86.7954 17.132C86.614 16.9847 86.3704 16.911 86.0644 16.911C85.8717 16.911 85.7244 16.9507 85.6224 17.03C85.5204 17.098 85.4694 17.2057 85.4694 17.353C85.4694 17.5457 85.5884 17.693 85.8264 17.795C86.0644 17.8857 86.444 17.982 86.9654 18.084C87.6567 18.22 88.2404 18.373 88.7164 18.543C89.1924 18.713 89.606 19.0077 89.9574 19.427C90.3087 19.835 90.4844 20.4017 90.4844 21.127C90.4844 21.6937 90.32 22.2037 89.9914 22.657C89.6627 23.1103 89.1867 23.4673 88.5634 23.728C87.9514 23.9887 87.2317 24.119 86.4044 24.119ZM97.9491 20.787V24H96.5211C93.8917 24 92.5771 22.691 92.5771 20.073V17.557H91.3871V14.412H92.5771V12.1H96.3511V14.412H97.9151V17.557H96.3511V20.141C96.3511 20.3677 96.4021 20.532 96.5041 20.634C96.6174 20.736 96.7987 20.787 97.0481 20.787H97.9491ZM103.16 16.18C103.546 15.6247 104.016 15.1827 104.571 14.854C105.127 14.514 105.705 14.344 106.305 14.344V18.373H105.234C104.52 18.373 103.993 18.4977 103.653 18.747C103.325 18.9963 103.16 19.4383 103.16 20.073V24H99.3864V14.412H103.16V16.18ZM117.471 14.412V24H113.697V22.538C113.402 22.9913 113.006 23.3597 112.507 23.643C112.02 23.9263 111.436 24.068 110.756 24.068C109.657 24.068 108.795 23.6997 108.172 22.963C107.56 22.2263 107.254 21.229 107.254 19.971V14.412H111.011V19.495C111.011 19.9483 111.13 20.311 111.368 20.583C111.617 20.8437 111.946 20.974 112.354 20.974C112.773 20.974 113.102 20.8437 113.34 20.583C113.578 20.311 113.697 19.9483 113.697 19.495V14.412H117.471ZM118.665 19.206C118.665 18.2087 118.869 17.3417 119.277 16.605C119.697 15.857 120.275 15.2847 121.011 14.888C121.759 14.4913 122.609 14.293 123.561 14.293C124.808 14.293 125.856 14.6443 126.706 15.347C127.568 16.0497 128.112 17.0243 128.338 18.271H124.343C124.196 17.7723 123.907 17.523 123.476 17.523C123.17 17.523 122.927 17.6647 122.745 17.948C122.575 18.2313 122.49 18.6507 122.49 19.206C122.49 19.7613 122.575 20.1807 122.745 20.464C122.927 20.7473 123.17 20.889 123.476 20.889C123.907 20.889 124.196 20.6397 124.343 20.141H128.338C128.112 21.3877 127.568 22.3623 126.706 23.065C125.856 23.7677 124.808 24.119 123.561 24.119C122.609 24.119 121.759 23.9207 121.011 23.524C120.275 23.1273 119.697 22.5607 119.277 21.824C118.869 21.076 118.665 20.2033 118.665 19.206ZM135.502 20.787V24H134.074C131.444 24 130.13 22.691 130.13 20.073V17.557H128.94V14.412H130.13V12.1H133.904V14.412H135.468V17.557H133.904V20.141C133.904 20.3677 133.955 20.532 134.057 20.634C134.17 20.736 134.351 20.787 134.601 20.787H135.502Z" fill="white"/>
</svg>
