<svg width="137" height="36" viewBox="0 0 137 36" fill="none" xmlns="http://www.w3.org/2000/svg">
<circle cx="17.1053" cy="18" r="13.6842" stroke="#BE41C7" stroke-width="6.84211"/>
<path d="M42.9161 14.344C44.0154 14.344 44.8711 14.7123 45.4831 15.449C46.1064 16.1857 46.4181 17.183 46.4181 18.441V24H42.6611V18.917C42.6611 18.4637 42.5364 18.1067 42.2871 17.846C42.0491 17.574 41.7261 17.438 41.3181 17.438C40.8987 17.438 40.5701 17.574 40.3321 17.846C40.0941 18.1067 39.9751 18.4637 39.9751 18.917V24H36.2011V14.412H39.9751V15.874C40.2697 15.4207 40.6607 15.0523 41.1481 14.769C41.6467 14.4857 42.2361 14.344 42.9161 14.344ZM57.3366 19.121C57.3366 19.3817 57.3196 19.631 57.2856 19.869H51.2166C51.2733 20.6963 51.6189 21.11 52.2536 21.11C52.6616 21.11 52.9563 20.923 53.1376 20.549H57.1326C56.9966 21.229 56.7076 21.841 56.2656 22.385C55.8349 22.9177 55.2853 23.3427 54.6166 23.66C53.9593 23.966 53.2339 24.119 52.4406 24.119C51.4886 24.119 50.6386 23.9207 49.8906 23.524C49.1539 23.1273 48.5759 22.5607 48.1566 21.824C47.7486 21.076 47.5446 20.2033 47.5446 19.206C47.5446 18.2087 47.7486 17.3417 48.1566 16.605C48.5759 15.857 49.1539 15.2847 49.8906 14.888C50.6386 14.4913 51.4886 14.293 52.4406 14.293C53.3926 14.293 54.2369 14.4913 54.9736 14.888C55.7216 15.2733 56.2996 15.8287 56.7076 16.554C57.1269 17.2793 57.3366 18.135 57.3366 19.121ZM53.5116 18.22C53.5116 17.9027 53.4096 17.6647 53.2056 17.506C53.0016 17.336 52.7466 17.251 52.4406 17.251C51.7719 17.251 51.3809 17.574 51.2676 18.22H53.5116ZM58.1902 17.965C58.1902 16.775 58.4282 15.7153 58.9042 14.786C59.3915 13.8567 60.0828 13.137 60.9782 12.627C61.8735 12.1057 62.9275 11.845 64.1402 11.845C65.1828 11.845 66.1122 12.0433 66.9282 12.44C67.7555 12.8253 68.4242 13.375 68.9342 14.089C69.4555 14.803 69.8012 15.636 69.9712 16.588H65.9932C65.8118 16.1913 65.5512 15.8853 65.2112 15.67C64.8825 15.4433 64.5028 15.33 64.0722 15.33C63.4375 15.33 62.9332 15.568 62.5592 16.044C62.1965 16.52 62.0152 17.1603 62.0152 17.965C62.0152 18.7697 62.1965 19.41 62.5592 19.886C62.9332 20.362 63.4375 20.6 64.0722 20.6C64.5028 20.6 64.8825 20.4923 65.2112 20.277C65.5512 20.0503 65.8118 19.7387 65.9932 19.342H69.9712C69.8012 20.294 69.4555 21.127 68.9342 21.841C68.4242 22.555 67.7555 23.1103 66.9282 23.507C66.1122 23.8923 65.1828 24.085 64.1402 24.085C62.9275 24.085 61.8735 23.83 60.9782 23.32C60.0828 22.7987 59.3915 22.0733 58.9042 21.144C58.4282 20.2147 58.1902 19.155 58.1902 17.965ZM75.886 24.119C74.9226 24.119 74.0556 23.9207 73.285 23.524C72.5143 23.1273 71.908 22.5607 71.466 21.824C71.0353 21.076 70.82 20.2033 70.82 19.206C70.82 18.2087 71.0353 17.3417 71.466 16.605C71.908 15.857 72.5143 15.2847 73.285 14.888C74.0556 14.4913 74.9226 14.293 75.886 14.293C76.8493 14.293 77.7163 14.4913 78.487 14.888C79.2576 15.2847 79.8583 15.857 80.289 16.605C80.731 17.3417 80.952 18.2087 80.952 19.206C80.952 20.2033 80.731 21.076 80.289 21.824C79.8583 22.5607 79.2576 23.1273 78.487 23.524C77.7163 23.9207 76.8493 24.119 75.886 24.119ZM75.886 20.855C76.2373 20.855 76.532 20.719 76.77 20.447C77.008 20.1637 77.127 19.75 77.127 19.206C77.127 18.662 77.008 18.254 76.77 17.982C76.532 17.6987 76.2373 17.557 75.886 17.557C75.5346 17.557 75.24 17.6987 75.002 17.982C74.764 18.254 74.645 18.662 74.645 19.206C74.645 19.75 74.7583 20.1637 74.985 20.447C75.223 20.719 75.5233 20.855 75.886 20.855ZM86.4046 24.119C85.4979 24.119 84.6933 23.9717 83.9906 23.677C83.2993 23.3823 82.7496 22.9743 82.3416 22.453C81.9336 21.9317 81.7013 21.3423 81.6446 20.685H85.2656C85.3109 20.9683 85.4299 21.178 85.6226 21.314C85.8266 21.45 86.0816 21.518 86.3876 21.518C86.5803 21.518 86.7333 21.4783 86.8466 21.399C86.9599 21.3083 87.0166 21.2007 87.0166 21.076C87.0166 20.8607 86.8976 20.7077 86.6596 20.617C86.4216 20.5263 86.0193 20.4243 85.4526 20.311C84.7613 20.175 84.1889 20.0277 83.7356 19.869C83.2936 19.7103 82.9026 19.4383 82.5626 19.053C82.2339 18.6677 82.0696 18.135 82.0696 17.455C82.0696 16.8657 82.2226 16.333 82.5286 15.857C82.8459 15.3697 83.3106 14.99 83.9226 14.718C84.5346 14.4347 85.2769 14.293 86.1496 14.293C87.4416 14.293 88.4503 14.6103 89.1756 15.245C89.9123 15.8797 90.3543 16.707 90.5016 17.727H87.1526C87.0959 17.4663 86.9769 17.268 86.7956 17.132C86.6143 16.9847 86.3706 16.911 86.0646 16.911C85.8719 16.911 85.7246 16.9507 85.6226 17.03C85.5206 17.098 85.4696 17.2057 85.4696 17.353C85.4696 17.5457 85.5886 17.693 85.8266 17.795C86.0646 17.8857 86.4443 17.982 86.9656 18.084C87.6569 18.22 88.2406 18.373 88.7166 18.543C89.1926 18.713 89.6063 19.0077 89.9576 19.427C90.3089 19.835 90.4846 20.4017 90.4846 21.127C90.4846 21.6937 90.3203 22.2037 89.9916 22.657C89.6629 23.1103 89.1869 23.4673 88.5636 23.728C87.9516 23.9887 87.2319 24.119 86.4046 24.119ZM97.9493 20.787V24H96.5213C93.892 24 92.5773 22.691 92.5773 20.073V17.557H91.3873V14.412H92.5773V12.1H96.3513V14.412H97.9153V17.557H96.3513V20.141C96.3513 20.3677 96.4023 20.532 96.5043 20.634C96.6177 20.736 96.799 20.787 97.0483 20.787H97.9493ZM103.161 16.18C103.546 15.6247 104.016 15.1827 104.572 14.854C105.127 14.514 105.705 14.344 106.306 14.344V18.373H105.235C104.521 18.373 103.994 18.4977 103.654 18.747C103.325 18.9963 103.161 19.4383 103.161 20.073V24H99.3866V14.412H103.161V16.18ZM117.471 14.412V24H113.697V22.538C113.403 22.9913 113.006 23.3597 112.507 23.643C112.02 23.9263 111.436 24.068 110.756 24.068C109.657 24.068 108.796 23.6997 108.172 22.963C107.56 22.2263 107.254 21.229 107.254 19.971V14.412H111.011V19.495C111.011 19.9483 111.13 20.311 111.368 20.583C111.618 20.8437 111.946 20.974 112.354 20.974C112.774 20.974 113.102 20.8437 113.34 20.583C113.578 20.311 113.697 19.9483 113.697 19.495V14.412H117.471ZM118.666 19.206C118.666 18.2087 118.87 17.3417 119.278 16.605C119.697 15.857 120.275 15.2847 121.012 14.888C121.76 14.4913 122.61 14.293 123.562 14.293C124.808 14.293 125.857 14.6443 126.707 15.347C127.568 16.0497 128.112 17.0243 128.339 18.271H124.344C124.196 17.7723 123.907 17.523 123.477 17.523C123.171 17.523 122.927 17.6647 122.746 17.948C122.576 18.2313 122.491 18.6507 122.491 19.206C122.491 19.7613 122.576 20.1807 122.746 20.464C122.927 20.7473 123.171 20.889 123.477 20.889C123.907 20.889 124.196 20.6397 124.344 20.141H128.339C128.112 21.3877 127.568 22.3623 126.707 23.065C125.857 23.7677 124.808 24.119 123.562 24.119C122.61 24.119 121.76 23.9207 121.012 23.524C120.275 23.1273 119.697 22.5607 119.278 21.824C118.87 21.076 118.666 20.2033 118.666 19.206ZM135.502 20.787V24H134.074C131.445 24 130.13 22.691 130.13 20.073V17.557H128.94V14.412H130.13V12.1H133.904V14.412H135.468V17.557H133.904V20.141C133.904 20.3677 133.955 20.532 134.057 20.634C134.17 20.736 134.352 20.787 134.601 20.787H135.502Z" fill="#35547A"/>
</svg>
